<svg width="260" height="68" viewBox="0 0 260 68" fill="none" xmlns="http://www.w3.org/2000/svg">
<path d="M9.4 62.96C6.89333 62.96 4.81333 62.1067 3.16 60.4C1.50667 58.6933 0.68 56.6133 0.68 54.16C0.68 51.6533 1.50667 49.5467 3.16 47.84C4.81333 46.1333 6.89333 45.28 9.4 45.28C11.9067 45.28 13.96 46.1333 15.56 47.84C17.2133 49.5467 18.04 51.6533 18.04 54.16C18.04 56.6133 17.2133 58.6933 15.56 60.4C13.96 62.1067 11.9067 62.96 9.4 62.96Z" fill="black"/>
<path d="M21.4475 67.6L38.2475 0.399997H51.2875L34.4875 67.6H21.4475Z" fill="#6366F1"/>
<path d="M68.7425 42V30.48H79.0625C80.2892 30.48 81.4092 30.24 82.4225 29.76C83.4892 29.2267 84.3425 28.4533 84.9825 27.44C85.6225 26.3733 85.9425 25.0667 85.9425 23.52C85.9425 21.9733 85.6225 20.6933 84.9825 19.68C84.3425 18.6133 83.4892 17.84 82.4225 17.36C81.4092 16.8267 80.2892 16.56 79.0625 16.56H68.7425V5.04H82.1825C85.8625 5.04 89.1692 5.78667 92.1025 7.28C95.0892 8.72 97.4358 10.8267 99.1425 13.6C100.903 16.32 101.783 19.6267 101.783 23.52C101.783 27.36 100.903 30.6667 99.1425 33.44C97.4358 36.2133 95.0892 38.3467 92.1025 39.84C89.1692 41.28 85.8625 42 82.1825 42H68.7425ZM55.7825 62V5.04H71.7825V62H55.7825ZM126.37 62.96C121.517 62.96 117.277 62.2667 113.65 60.88C110.077 59.44 106.77 57.1733 103.73 54.08L113.73 44.08C115.81 46.0533 117.997 47.5733 120.29 48.64C122.583 49.6533 125.037 50.16 127.65 50.16C129.837 50.16 131.49 49.84 132.61 49.2C133.73 48.5067 134.29 47.5733 134.29 46.4C134.29 45.2267 133.81 44.2667 132.85 43.52C131.89 42.72 130.61 42.0267 129.01 41.44C127.463 40.8 125.73 40.16 123.81 39.52C121.943 38.88 120.077 38.1067 118.21 37.2C116.343 36.2933 114.61 35.2 113.01 33.92C111.463 32.5867 110.21 30.96 109.25 29.04C108.29 27.0667 107.81 24.6667 107.81 21.84C107.81 18.16 108.69 14.9867 110.45 12.32C112.21 9.65333 114.69 7.62667 117.89 6.24C121.09 4.8 124.85 4.08 129.17 4.08C133.437 4.08 137.383 4.77333 141.01 6.16C144.69 7.49333 147.73 9.41333 150.13 11.92L140.05 21.92C138.29 20.2133 136.53 18.96 134.77 18.16C133.01 17.3067 131.09 16.88 129.01 16.88C127.357 16.88 126.023 17.1467 125.01 17.68C124.05 18.2133 123.57 19.0133 123.57 20.08C123.57 21.2 124.05 22.1333 125.01 22.88C125.97 23.5733 127.223 24.2133 128.77 24.8C130.37 25.3867 132.103 26 133.97 26.64C135.89 27.28 137.783 28.0533 139.65 28.96C141.517 29.8133 143.223 30.9333 144.77 32.32C146.37 33.6533 147.65 35.3333 148.61 37.36C149.57 39.3867 150.05 41.84 150.05 44.72C150.05 50.5333 147.97 55.04 143.81 58.24C139.703 61.3867 133.89 62.96 126.37 62.96ZM164.4 62.96C161.893 62.96 159.813 62.1067 158.16 60.4C156.507 58.6933 155.68 56.6133 155.68 54.16C155.68 51.6533 156.507 49.5467 158.16 47.84C159.813 46.1333 161.893 45.28 164.4 45.28C166.907 45.28 168.96 46.1333 170.56 47.84C172.213 49.5467 173.04 51.6533 173.04 54.16C173.04 56.6133 172.213 58.6933 170.56 60.4C168.96 62.1067 166.907 62.96 164.4 62.96ZM196.128 63.2C193.674 63.2 191.221 62.88 188.768 62.24C186.314 61.6 184.021 60.72 181.888 59.6C179.808 58.48 178.048 57.2 176.607 55.76L184.848 47.28C186.128 48.56 187.648 49.5733 189.408 50.32C191.221 51.0667 193.114 51.44 195.088 51.44C195.994 51.44 196.688 51.3333 197.168 51.12C197.701 50.8533 197.968 50.5067 197.968 50.08C197.968 49.3333 197.514 48.7733 196.608 48.4C195.754 48.0267 194.634 47.68 193.248 47.36C191.914 47.04 190.474 46.64 188.928 46.16C187.434 45.6267 185.994 44.9333 184.608 44.08C183.221 43.1733 182.101 41.9467 181.248 40.4C180.394 38.8 179.968 36.7733 179.968 34.32C179.968 31.8133 180.661 29.6 182.048 27.68C183.488 25.7067 185.488 24.16 188.048 23.04C190.661 21.8667 193.674 21.28 197.088 21.28C200.554 21.28 203.914 21.8667 207.168 23.04C210.421 24.2133 213.008 25.9733 214.928 28.32L206.608 36.8C205.274 35.3067 203.808 34.32 202.208 33.84C200.608 33.3067 199.274 33.04 198.208 33.04C197.194 33.04 196.474 33.2 196.048 33.52C195.674 33.7867 195.488 34.1333 195.488 34.56C195.488 35.1467 195.914 35.6267 196.768 36C197.621 36.3733 198.714 36.72 200.048 37.04C201.434 37.36 202.874 37.7867 204.368 38.32C205.861 38.8533 207.274 39.6 208.608 40.56C209.994 41.52 211.114 42.8 211.968 44.4C212.821 45.9467 213.248 47.9733 213.248 50.48C213.248 54.3733 211.701 57.4667 208.608 59.76C205.514 62.0533 201.354 63.2 196.128 63.2ZM244.316 62V39.92C244.316 38.3733 243.862 37.2 242.956 36.4C242.102 35.5467 241.009 35.12 239.676 35.12C238.769 35.12 237.942 35.3067 237.196 35.68C236.502 36.0533 235.942 36.6133 235.516 37.36C235.142 38.0533 234.956 38.9067 234.956 39.92L228.876 37.2C228.876 34 229.516 31.2533 230.796 28.96C232.129 26.6667 233.942 24.9067 236.236 23.68C238.582 22.4533 241.302 21.84 244.396 21.84C247.596 21.84 250.369 22.48 252.716 23.76C255.062 24.9867 256.849 26.6933 258.076 28.88C259.356 31.0133 259.996 33.4933 259.996 36.32V62H244.316ZM219.276 62V3.44H234.956V62H219.276Z" fill="#323232"/>
</svg>
